<?xml version="1.0" standalone="no"?>
<!DOCTYPE svg PUBLIC "-//W3C//DTD SVG 20010904//EN"
 "http://www.w3.org/TR/2001/REC-SVG-20010904/DTD/svg10.dtd">
<svg version="1.0" xmlns="http://www.w3.org/2000/svg"
 width="512.000000pt" height="512.000000pt" viewBox="0 0 512.000000 512.000000"
 preserveAspectRatio="xMidYMid meet">

<g transform="translate(0.000000,512.000000) scale(0.100000,-0.100000)"
fill="#000000" stroke="none">
<path d="M2180 2869 c-207 -14 -635 -113 -815 -188 -120 -50 -143 -56 -215
-55 -41 1 -103 9 -138 19 -34 10 -66 15 -70 11 -3 -4 4 -35 16 -69 l23 -62
-27 -22 c-15 -12 -51 -34 -80 -49 -30 -15 -52 -29 -51 -31 5 -5 101 15 182 37
44 12 112 29 150 37 84 17 479 46 657 47 69 1 129 4 132 7 7 6 -141 28 -246
36 -63 5 -89 23 -68 48 12 14 94 42 195 65 320 73 478 90 664 72 139 -14 201
-33 356 -108 109 -53 129 -64 172 -95 38 -28 31 -29 -372 -74 -77 -9 -171 -20
-210 -25 -38 -5 -105 -9 -147 -9 -87 -1 -111 -15 -41 -25 110 -15 338 -6 733
29 283 26 863 11 1025 -26 185 -42 237 -82 265 -204 l7 -30 16 39 c24 54 22
131 -3 166 -22 31 -92 74 -155 96 -23 7 -106 23 -185 35 -125 19 -191 22 -485
24 l-340 1 -105 67 c-58 37 -108 67 -112 67 -4 0 -24 11 -44 25 -48 32 -163
87 -241 114 -53 19 -249 44 -303 39 -8 0 -71 -5 -140 -9z"/>
</g>
</svg>
