<?xml version="1.0" standalone="no"?>
<!DOCTYPE svg PUBLIC "-//W3C//DTD SVG 20010904//EN"
 "http://www.w3.org/TR/2001/REC-SVG-20010904/DTD/svg10.dtd">
<svg version="1.0" xmlns="http://www.w3.org/2000/svg"
 width="415.000000pt" height="147.000000pt" viewBox="0 0 415.000000 147.000000"
 preserveAspectRatio="xMidYMid meet">

<g transform="translate(0.000000,147.000000) scale(0.100000,-0.100000)"
fill="#000000" stroke="none">
<path d="M1110 1106 c-165 -30 -312 -68 -448 -117 l-143 -52 -82 16 c-44 9
-83 14 -86 12 -2 -3 3 -24 12 -47 10 -23 14 -45 9 -50 -4 -4 -32 -21 -62 -37
-30 -17 -53 -31 -50 -31 3 0 41 7 84 15 44 9 83 12 87 8 3 -5 27 -37 53 -72
39 -55 44 -67 33 -82 -6 -10 -43 -61 -82 -114 -38 -53 -76 -105 -84 -116 -13
-18 -11 -19 65 -19 l79 1 60 80 59 81 21 -25 c11 -13 39 -50 62 -81 l43 -56
81 0 80 0 -43 58 c-24 32 -66 90 -94 128 -29 38 -53 73 -54 77 0 4 32 53 72
107 l73 100 105 1 c117 1 98 12 -43 25 -80 7 -97 15 -77 39 11 13 203 62 340
86 97 17 273 14 350 -6 72 -19 207 -79 265 -118 37 -25 37 -26 14 -31 -49 -11
-471 -56 -525 -56 -39 0 -53 -3 -48 -12 7 -11 358 -6 507 8 l67 7 0 -207 0
-206 65 0 65 0 0 210 0 210 50 0 c46 0 50 -2 50 -24 0 -57 75 -63 100 -8 l15
34 133 -6 c149 -7 266 -27 321 -53 42 -21 81 -75 81 -112 l1 -26 14 25 c17 29
19 93 5 120 -42 78 -340 130 -662 115 l-147 -6 -113 69 c-63 37 -154 86 -203
107 l-90 39 -155 3 c-96 1 -184 -3 -230 -11z m-449 -264 c-37 -52 -47 -56 -70
-26 -12 15 -21 30 -21 35 0 9 30 16 78 18 l33 1 -20 -28z"/>
<path d="M3339 731 c-70 -22 -119 -91 -119 -167 0 -112 124 -186 235 -140 19
8 35 11 35 5 0 -5 18 -9 41 -9 31 0 47 6 70 29 25 26 29 37 29 86 0 31 -5 87
-11 126 l-12 69 -58 0 c-34 0 -59 -5 -61 -11 -3 -9 -10 -9 -23 -2 -30 16 -97
23 -126 14z m129 -117 c28 -20 30 -69 3 -84 -30 -15 -82 -12 -103 7 -24 22
-23 48 4 73 26 24 65 26 96 4z"/>
<path d="M1070 713 c-31 -11 -22 -12 84 -12 66 -1 116 2 113 6 -4 3 -15 7 -25
8 -9 1 -25 6 -36 10 -11 5 -21 3 -26 -5 -5 -8 -9 -9 -14 -1 -4 6 -16 11 -27
11 -11 0 -17 -4 -14 -10 3 -5 2 -10 -4 -10 -5 0 -11 3 -13 8 -1 4 -19 2 -38
-5z"/>
<path d="M1450 708 c-114 -58 -123 -200 -16 -263 88 -51 208 -42 267 21 l24
26 -24 19 c-35 28 -66 33 -93 15 -30 -21 -81 -20 -101 2 -10 10 -14 22 -10 25
3 4 57 7 120 7 110 0 113 1 113 22 0 12 -10 42 -21 66 -16 33 -32 49 -63 63
-58 26 -140 25 -196 -3z m134 -64 c32 -12 15 -24 -34 -24 -27 0 -50 4 -50 9 0
18 53 27 84 15z"/>
<path d="M2030 575 l0 -155 60 0 60 0 0 155 0 155 -60 0 -60 0 0 -155z"/>
<path d="M2943 718 c-17 -6 -49 -28 -70 -50 -36 -36 -38 -43 -38 -100 0 -59 1
-61 44 -99 46 -41 92 -59 154 -59 38 0 107 23 107 36 0 3 -10 23 -21 44 -20
35 -23 37 -50 27 -43 -17 -99 12 -99 51 0 44 30 66 84 60 48 -6 63 6 80 58 5
18 1 24 -25 33 -39 13 -122 13 -166 -1z"/>
<path d="M3717 723 c-4 -3 -7 -73 -7 -155 0 -165 1 -167 66 -127 33 20 54 65
54 117 0 35 45 75 78 69 66 -13 65 -14 86 36 17 42 18 50 6 57 -23 15 -102 12
-134 -5 -35 -18 -36 -18 -36 0 0 11 -13 15 -53 15 -30 0 -57 -3 -60 -7z"/>
<path d="M2299 689 c-8 -5 -9 -9 -4 -10 6 0 1 -4 -10 -9 -12 -5 38 -9 132 -9
152 -1 153 -1 136 19 -20 24 -48 27 -39 5 3 -8 1 -15 -4 -15 -6 0 -10 7 -10
15 0 8 -7 15 -15 15 -8 0 -15 -7 -15 -15 0 -13 -4 -14 -20 -5 -15 8 -20 8 -20
-2 -1 -8 -5 -7 -14 5 -16 21 -40 23 -32 2 3 -8 1 -15 -4 -15 -6 0 -10 7 -10
15 0 8 -9 15 -20 15 -14 0 -18 -5 -14 -17 5 -17 5 -17 -8 -1 -10 11 -19 14
-29 7z"/>
<path d="M1016 658 c-9 -34 -8 -38 9 -38 9 0 20 12 25 26 13 34 13 34 -9 34
-11 0 -21 -9 -25 -22z"/>
<path d="M1070 661 c-5 -11 -10 -24 -10 -30 0 -12 40 -15 40 -3 0 4 3 17 6 30
8 28 -21 31 -36 3z"/>
<path d="M1117 653 c-6 -34 -1 -41 21 -27 25 16 28 54 4 54 -13 0 -21 -9 -25
-27z"/>
<path d="M1171 658 c-6 -17 -5 -24 7 -26 15 -4 32 14 32 36 0 21 -30 13 -39
-10z"/>
<path d="M1220 654 c-13 -33 -13 -34 3 -34 8 0 19 11 25 25 15 33 15 35 -3 35
-9 0 -20 -12 -25 -26z"/>
<path d="M985 650 c-18 -20 -16 -38 3 -26 8 5 24 46 18 46 -2 0 -11 -9 -21
-20z"/>
<path d="M2241 628 c-6 -17 -5 -24 7 -26 15 -4 32 14 32 36 0 21 -30 13 -39
-10z"/>
<path d="M2290 641 c0 -5 -3 -16 -6 -25 -4 -10 -1 -16 9 -16 14 0 27 20 27 41
0 5 -7 9 -15 9 -8 0 -15 -4 -15 -9z"/>
<path d="M2331 628 c-6 -17 -5 -24 6 -26 17 -4 19 -3 27 26 6 16 3 22 -9 22
-8 0 -19 -10 -24 -22z"/>
<path d="M2377 629 c-4 -15 -1 -19 11 -17 21 4 29 38 9 38 -8 0 -17 -9 -20
-21z"/>
<path d="M2423 634 c-3 -8 -1 -20 6 -27 13 -13 16 -10 25 21 6 16 3 22 -9 22
-8 0 -18 -7 -22 -16z"/>
<path d="M2466 634 c-10 -25 -7 -34 9 -34 8 0 15 4 15 9 0 5 3 16 6 25 4 10 1
16 -9 16 -8 0 -18 -7 -21 -16z"/>
<path d="M2510 641 c0 -5 -3 -17 -6 -26 -5 -13 -2 -16 11 -14 10 2 21 14 26
27 7 18 5 22 -11 22 -11 0 -20 -4 -20 -9z"/>
<path d="M2556 632 c-4 -13 -5 -26 -2 -29 10 -11 18 4 14 29 l-4 23 -8 -23z"/>
<path d="M962 598 c3 -7 13 -15 22 -16 12 -3 17 1 14 10 -3 7 -13 15 -22 16
-12 3 -17 -1 -14 -10z"/>
<path d="M1012 598 c3 -7 13 -15 22 -16 12 -3 17 1 14 10 -3 7 -13 15 -22 16
-12 3 -17 -1 -14 -10z"/>
<path d="M1062 598 c7 -19 38 -22 38 -4 0 10 -9 16 -21 16 -12 0 -19 -5 -17
-12z"/>
<path d="M2245 570 c3 -5 10 -10 16 -10 5 0 9 5 9 10 0 6 -7 10 -16 10 -8 0
-12 -4 -9 -10z"/>
<path d="M2285 570 c3 -5 13 -10 21 -10 8 0 12 5 9 10 -3 6 -13 10 -21 10 -8
0 -12 -4 -9 -10z"/>
<path d="M2465 570 c3 -5 10 -10 16 -10 5 0 9 5 9 10 0 6 -7 10 -16 10 -8 0
-12 -4 -9 -10z"/>
<path d="M2505 570 c3 -5 13 -10 21 -10 8 0 14 5 14 10 0 6 -9 10 -21 10 -11
0 -17 -4 -14 -10z"/>
<path d="M2555 570 c4 -6 11 -8 16 -5 14 9 11 15 -7 15 -8 0 -12 -5 -9 -10z"/>
<path d="M960 550 c0 -5 5 -10 11 -10 5 0 7 5 4 10 -3 6 -8 10 -11 10 -2 0 -4
-4 -4 -10z"/>
<path d="M990 550 c0 -5 9 -10 21 -10 11 0 17 5 14 10 -3 6 -13 10 -21 10 -8
0 -14 -4 -14 -10z"/>
<path d="M1040 550 c0 -5 9 -10 21 -10 11 0 17 5 14 10 -3 6 -13 10 -21 10 -8
0 -14 -4 -14 -10z"/>
<path d="M2228 533 c7 -3 16 -2 19 1 4 3 -2 6 -13 5 -11 0 -14 -3 -6 -6z"/>
<path d="M2268 533 c7 -3 16 -2 19 1 4 3 -2 6 -13 5 -11 0 -14 -3 -6 -6z"/>
<path d="M2318 533 c7 -3 16 -2 19 1 4 3 -2 6 -13 5 -11 0 -14 -3 -6 -6z"/>
<path d="M2488 533 c6 -2 18 -2 25 0 6 3 1 5 -13 5 -14 0 -19 -2 -12 -5z"/>
<path d="M2538 533 c7 -3 16 -2 19 1 4 3 -2 6 -13 5 -11 0 -14 -3 -6 -6z"/>
<path d="M965 520 c3 -5 8 -10 11 -10 2 0 4 5 4 10 0 6 -5 10 -11 10 -5 0 -7
-4 -4 -10z"/>
<path d="M987 510 c-3 -10 1 -27 8 -36 11 -15 13 -14 23 16 15 42 15 40 -7 40
-10 0 -21 -9 -24 -20z"/>
<path d="M1036 508 c-9 -36 -7 -48 9 -48 14 0 35 37 35 61 0 20 -38 8 -44 -13z"/>
<path d="M1090 518 c0 -7 -3 -23 -6 -35 -5 -17 -2 -23 10 -23 17 0 40 45 30
61 -8 13 -34 11 -34 -3z"/>
<path d="M1208 518 c-9 -7 -19 -23 -23 -35 -10 -34 23 -30 36 4 13 34 8 47
-13 31z"/>
<path d="M2230 505 c0 -8 5 -15 10 -15 6 0 10 7 10 15 0 8 -4 15 -10 15 -5 0
-10 -7 -10 -15z"/>
<path d="M2262 495 c-15 -33 -15 -35 3 -35 13 0 35 36 35 56 0 15 -29 -1 -38
-21z"/>
<path d="M2301 490 c-9 -27 -8 -30 10 -30 10 0 19 3 19 8 0 4 3 17 6 30 10 35
-22 28 -35 -8z"/>
<path d="M2350 496 c-13 -35 -13 -36 4 -36 19 0 31 39 17 53 -7 7 -13 2 -21
-17z"/>
<path d="M2440 494 c-13 -33 -13 -34 4 -34 14 0 26 21 26 46 0 23 -20 16 -30
-12z"/>
<path d="M2481 490 c-8 -24 -7 -30 5 -30 8 0 19 12 24 26 13 33 13 34 -4 34
-8 0 -19 -13 -25 -30z"/>
<path d="M2530 501 c-5 -11 -10 -24 -10 -30 0 -17 27 -13 34 5 16 41 -4 62
-24 25z"/>
<path d="M1136 494 c-9 -25 -7 -34 9 -34 12 0 35 28 35 44 0 14 -38 5 -44 -10z"/>
<path d="M2391 488 c-11 -29 7 -38 26 -12 17 23 17 34 -2 34 -9 0 -19 -10 -24
-22z"/>
<path d="M1236 485 c-9 -23 -8 -25 9 -25 17 0 19 9 6 28 -7 11 -10 10 -15 -3z"/>
<path d="M1035 440 c4 -6 11 -8 16 -5 5 4 9 1 9 -4 0 -15 37 -14 43 2 3 7 6 5
6 -5 1 -10 8 -18 17 -18 9 0 23 8 31 18 14 16 14 16 9 0 -4 -12 0 -18 11 -18
9 0 22 8 30 18 14 16 14 16 9 0 -7 -23 6 -23 35 2 l24 19 -123 1 c-81 0 -121
-3 -117 -10z"/>
<path d="M2293 439 c9 -5 22 -7 27 -4 6 3 10 1 10 -4 0 -15 27 -14 33 2 4 10
6 10 6 0 1 -15 31 -18 31 -4 0 5 8 7 19 4 10 -3 22 0 25 6 5 8 -20 11 -81 11
-65 -1 -83 -3 -70 -11z"/>
<path d="M2460 435 c0 -8 7 -15 15 -15 8 0 15 4 15 9 0 4 11 6 24 4 13 -3 27
0 30 6 5 7 -8 11 -38 11 -34 0 -46 -4 -46 -15z"/>
</g>
</svg>
